<mxfile host="app.diagrams.net" agent="Mozilla/5.0 (Windows NT 10.0; Win64; x64) AppleWebKit/537.36 (KHTML, like Gecko) Chrome/132.0.0.0 Safari/537.36" version="26.0.11">
  <diagram name="Page-1" id="dYt0xg5lj7ndnYslkDU0">
    <mxGraphModel dx="152" dy="411" grid="1" gridSize="10" guides="1" tooltips="1" connect="1" arrows="1" fold="1" page="1" pageScale="1" pageWidth="827" pageHeight="1169" math="0" shadow="0">
      <root>
        <mxCell id="0" />
        <mxCell id="1" parent="0" />
        <mxCell id="iLDBKoBFhfsiuAjINDtQ-1" value="USER&amp;nbsp;" style="ellipse;whiteSpace=wrap;html=1;fillColor=light-dark(#3b74c4, #1d293b);strokeColor=#6c8ebf;" vertex="1" parent="1">
          <mxGeometry x="190" y="70" width="120" height="80" as="geometry" />
        </mxCell>
        <mxCell id="iLDBKoBFhfsiuAjINDtQ-2" value="1. Calendar" style="whiteSpace=wrap;html=1;aspect=fixed;fillColor=#dae8fc;strokeColor=#6c8ebf;" vertex="1" parent="1">
          <mxGeometry x="500" y="90" width="80" height="80" as="geometry" />
        </mxCell>
        <mxCell id="iLDBKoBFhfsiuAjINDtQ-3" value="2. New Booking Window" style="whiteSpace=wrap;html=1;aspect=fixed;fillColor=#dae8fc;strokeColor=#6c8ebf;" vertex="1" parent="1">
          <mxGeometry x="240" y="250" width="80" height="80" as="geometry" />
        </mxCell>
        <mxCell id="iLDBKoBFhfsiuAjINDtQ-4" value="db" style="shape=cylinder3;whiteSpace=wrap;html=1;boundedLbl=1;backgroundOutline=1;size=15;fillColor=light-dark(#c2bdbd, #1a1a1a);fontColor=#333333;strokeColor=#666666;" vertex="1" parent="1">
          <mxGeometry x="500" y="260" width="60" height="80" as="geometry" />
        </mxCell>
        <mxCell id="iLDBKoBFhfsiuAjINDtQ-5" value="" style="curved=1;endArrow=classic;html=1;rounded=0;entryX=1.017;entryY=0.633;entryDx=0;entryDy=0;exitX=0.4;exitY=1.025;exitDx=0;exitDy=0;exitPerimeter=0;edgeStyle=orthogonalEdgeStyle;entryPerimeter=0;" edge="1" parent="1" source="iLDBKoBFhfsiuAjINDtQ-2" target="iLDBKoBFhfsiuAjINDtQ-3">
          <mxGeometry width="50" height="50" relative="1" as="geometry">
            <mxPoint x="533.3599999999999" y="202.64" as="sourcePoint" />
            <mxPoint x="340" y="320" as="targetPoint" />
          </mxGeometry>
        </mxCell>
        <mxCell id="iLDBKoBFhfsiuAjINDtQ-6" value="" style="endArrow=classic;html=1;rounded=0;entryX=0;entryY=0.25;entryDx=0;entryDy=0;exitX=1;exitY=0.5;exitDx=0;exitDy=0;edgeStyle=orthogonalEdgeStyle;curved=1;" edge="1" parent="1" source="iLDBKoBFhfsiuAjINDtQ-1" target="iLDBKoBFhfsiuAjINDtQ-2">
          <mxGeometry width="50" height="50" relative="1" as="geometry">
            <mxPoint x="350" y="140" as="sourcePoint" />
            <mxPoint x="400" y="90" as="targetPoint" />
          </mxGeometry>
        </mxCell>
        <mxCell id="iLDBKoBFhfsiuAjINDtQ-8" value="" style="curved=1;endArrow=classic;html=1;rounded=0;entryX=0;entryY=0.5;entryDx=0;entryDy=0;entryPerimeter=0;exitX=1.042;exitY=0.175;exitDx=0;exitDy=0;exitPerimeter=0;edgeStyle=orthogonalEdgeStyle;" edge="1" parent="1" source="iLDBKoBFhfsiuAjINDtQ-3" target="iLDBKoBFhfsiuAjINDtQ-4">
          <mxGeometry width="50" height="50" relative="1" as="geometry">
            <mxPoint x="380" y="240" as="sourcePoint" />
            <mxPoint x="430" y="190" as="targetPoint" />
          </mxGeometry>
        </mxCell>
        <mxCell id="iLDBKoBFhfsiuAjINDtQ-9" value="" style="curved=1;endArrow=classic;html=1;rounded=0;entryX=0.5;entryY=1;entryDx=0;entryDy=0;exitX=0.75;exitY=0;exitDx=0;exitDy=0;edgeStyle=orthogonalEdgeStyle;" edge="1" parent="1" source="iLDBKoBFhfsiuAjINDtQ-3" target="iLDBKoBFhfsiuAjINDtQ-1">
          <mxGeometry width="50" height="50" relative="1" as="geometry">
            <mxPoint x="380" y="240" as="sourcePoint" />
            <mxPoint x="430" y="190" as="targetPoint" />
          </mxGeometry>
        </mxCell>
        <mxCell id="iLDBKoBFhfsiuAjINDtQ-10" value="Clicks on the calendar button" style="text;html=1;align=center;verticalAlign=middle;whiteSpace=wrap;rounded=0;" vertex="1" parent="1">
          <mxGeometry x="320" y="90" width="160" height="20" as="geometry" />
        </mxCell>
        <mxCell id="iLDBKoBFhfsiuAjINDtQ-11" value="When a slot is selected&amp;nbsp;" style="text;html=1;align=center;verticalAlign=middle;whiteSpace=wrap;rounded=0;rotation=0;" vertex="1" parent="1">
          <mxGeometry x="390" y="180" width="146" height="30" as="geometry" />
        </mxCell>
        <mxCell id="iLDBKoBFhfsiuAjINDtQ-14" value="Store new appointment" style="text;html=1;align=center;verticalAlign=middle;whiteSpace=wrap;rounded=0;" vertex="1" parent="1">
          <mxGeometry x="330" y="282.5" width="130" height="35" as="geometry" />
        </mxCell>
        <mxCell id="iLDBKoBFhfsiuAjINDtQ-15" value="Confirmation to user&amp;nbsp;" style="text;html=1;align=center;verticalAlign=middle;whiteSpace=wrap;rounded=0;" vertex="1" parent="1">
          <mxGeometry x="190" y="180" width="60" height="30" as="geometry" />
        </mxCell>
        <mxCell id="iLDBKoBFhfsiuAjINDtQ-16" value="" style="curved=1;endArrow=classic;html=1;rounded=0;entryX=0.5;entryY=0;entryDx=0;entryDy=0;entryPerimeter=0;exitX=1.025;exitY=0.6;exitDx=0;exitDy=0;edgeStyle=orthogonalEdgeStyle;exitPerimeter=0;" edge="1" parent="1" source="iLDBKoBFhfsiuAjINDtQ-2" target="iLDBKoBFhfsiuAjINDtQ-4">
          <mxGeometry width="50" height="50" relative="1" as="geometry">
            <mxPoint x="380" y="220" as="sourcePoint" />
            <mxPoint x="430" y="170" as="targetPoint" />
          </mxGeometry>
        </mxCell>
        <mxCell id="iLDBKoBFhfsiuAjINDtQ-17" value="Fetches appointments from db" style="text;html=1;align=center;verticalAlign=middle;whiteSpace=wrap;rounded=0;" vertex="1" parent="1">
          <mxGeometry x="560" y="190" width="120" height="30" as="geometry" />
        </mxCell>
      </root>
    </mxGraphModel>
  </diagram>
</mxfile>
